<?xml version="1.0" standalone="no"?>
<!DOCTYPE svg PUBLIC "-//W3C//DTD SVG 20010904//EN"
 "http://www.w3.org/TR/2001/REC-SVG-20010904/DTD/svg10.dtd">
<svg version="1.0" xmlns="http://www.w3.org/2000/svg"
 width="512.000000pt" height="512.000000pt" viewBox="0 0 512.000000 512.000000"
 preserveAspectRatio="xMidYMid meet">
<metadata>
Created by potrace 1.15, written by Peter Selinger 2001-2017
</metadata>
<g transform="translate(0.000000,512.000000) scale(0.100000,-0.100000)"
fill="#000000" stroke="none">
<path d="M405 4285 c-42 -17 -75 -40 -111 -79 -91 -96 -84 28 -84 -1483 l0
-1333 -83 0 c-74 0 -86 -3 -105 -23 -21 -22 -22 -33 -22 -188 0 -143 3 -170
21 -209 29 -64 84 -117 146 -140 53 -20 81 -20 2393 -20 2312 0 2340 0 2393
20 62 23 117 76 146 140 18 39 21 66 21 211 0 160 -1 166 -23 187 -20 19 -35
22 -105 22 l-82 0 0 1333 c0 1521 8 1389 -89 1488 -41 41 -72 62 -114 78 l-58
21 -2092 0 -2092 0 -60 -25z m4261 -171 c15 -11 37 -33 48 -48 21 -27 21 -32
24 -1352 l2 -1324 -2180 0 -2180 0 0 1310 c0 1088 2 1316 14 1343 17 40 55 75
92 87 16 5 950 8 2091 7 l2062 -2 27 -21z m-2461 -2944 c8 -59 42 -106 92
-126 46 -20 480 -20 526 0 50 20 84 67 92 126 l7 50 1015 0 1015 0 -4 -90 c-3
-82 -5 -92 -31 -117 l-27 -28 -2330 0 -2330 0 -27 28 c-26 25 -28 35 -31 117
l-4 90 1015 0 1015 0 7 -50z m595 34 c0 -8 -5 -24 -10 -35 -10 -18 -23 -19
-230 -19 -207 0 -220 1 -230 19 -27 51 -28 51 230 51 211 0 240 -2 240 -16z"/>
<path d="M501 4031 c-17 -16 -35 -41 -41 -55 -7 -18 -10 -431 -10 -1213 0
-1305 -4 -1228 60 -1273 28 -20 51 -20 2050 -20 1999 0 2022 0 2050 20 64 45
60 -32 60 1275 0 1307 4 1230 -60 1275 -28 20 -51 20 -2053 20 l-2025 0 -31
-29z m4033 -87 c14 -6 16 -119 16 -1179 0 -1060 -2 -1173 -16 -1179 -20 -8
-3928 -8 -3948 0 -14 6 -16 119 -16 1179 0 929 3 1174 13 1178 18 8 3932 8
3951 1z"/>
</g>
</svg>
