<?xml version="1.0" standalone="no"?>
<!DOCTYPE svg PUBLIC "-//W3C//DTD SVG 20010904//EN"
 "http://www.w3.org/TR/2001/REC-SVG-20010904/DTD/svg10.dtd">
<svg version="1.0" xmlns="http://www.w3.org/2000/svg"
 width="225.000000pt" height="225.000000pt" viewBox="0 0 225.000000 225.000000"
 preserveAspectRatio="xMidYMid meet">
<metadata>
Created by potrace 1.15, written by Peter Selinger 2001-2017
</metadata>
<g transform="translate(0.000000,225.000000) scale(0.100000,-0.100000)"
fill="#000000" stroke="none">
<path d="M136 2235 c-53 -19 -87 -45 -111 -86 -19 -33 -20 -55 -23 -797 -2
-543 1 -775 9 -805 14 -52 71 -108 126 -125 28 -8 137 -12 352 -12 l311 0 0
-102 0 -103 -90 -100 -90 -100 249 -3 c137 -1 365 -1 506 0 l256 3 -110 99
-111 99 0 104 0 103 331 0 c231 0 344 4 372 12 55 17 112 73 126 125 8 30 11
262 9 805 -3 749 -3 764 -24 798 -23 41 -71 76 -123 90 -23 6 -377 10 -981 10
-785 -1 -952 -3 -984 -15z m1981 -118 l28 -27 3 -585 2 -585 -1025 0 -1025 0
2 584 c3 568 4 585 23 606 11 12 29 26 40 31 11 4 449 7 972 6 l953 -2 27 -28z
m31 -1422 c-3 -121 -4 -125 -31 -152 l-27 -28 -965 0 -965 0 -27 28 c-27 27
-28 31 -31 152 l-4 125 1027 0 1027 0 -4 -125z m-838 -386 l0 -101 41 -46 41
-47 -273 -3 c-149 -1 -274 0 -276 2 -3 2 9 23 26 47 30 40 31 46 31 146 l0
103 205 0 205 0 0 -101z"/>
</g>
</svg>
