<?xml version="1.0" standalone="no"?>
<!DOCTYPE svg PUBLIC "-//W3C//DTD SVG 20010904//EN"
 "http://www.w3.org/TR/2001/REC-SVG-20010904/DTD/svg10.dtd">
<svg version="1.0" xmlns="http://www.w3.org/2000/svg"
 width="225.000000pt" height="225.000000pt" viewBox="0 0 225.000000 225.000000"
 preserveAspectRatio="xMidYMid meet">
<metadata>
Created by potrace 1.15, written by Peter Selinger 2001-2017
</metadata>
<g transform="translate(0.000000,225.000000) scale(0.100000,-0.100000)"
fill="#000000" stroke="none">
<path d="M124 1851 c-48 -22 -101 -82 -114 -131 -14 -50 -13 -1129 1 -1184 14
-56 62 -114 113 -137 39 -18 88 -19 1001 -19 913 0 962 1 1001 19 51 23 99 81
113 137 15 59 15 1119 0 1178 -14 56 -62 114 -113 137 -39 18 -88 19 -1001 19
-913 0 -962 -1 -1001 -19z m1846 -105 c-36 -34 -842 -548 -853 -543 -19 7
-820 527 -837 543 -12 12 110 14 845 14 735 0 857 -2 845 -14z m-1466 -288
c87 -57 158 -108 157 -113 0 -6 -121 -171 -268 -368 l-268 -358 -3 528 c-1
290 0 534 3 540 4 13 23 2 379 -229z m1624 -307 l-3 -532 -268 358 c-147 197
-268 362 -269 368 -2 13 525 354 535 346 4 -4 6 -247 5 -540z m-1188 24 c92
-60 171 -105 185 -105 14 0 93 45 186 105 89 58 165 105 170 103 17 -6 580
-769 574 -778 -8 -14 -1852 -14 -1860 0 -6 10 563 780 577 780 4 0 80 -47 168
-105z"/>
</g>
</svg>
