<?xml version="1.0" standalone="no"?>
<!DOCTYPE svg PUBLIC "-//W3C//DTD SVG 20010904//EN"
 "http://www.w3.org/TR/2001/REC-SVG-20010904/DTD/svg10.dtd">
<svg version="1.0" xmlns="http://www.w3.org/2000/svg"
 width="225.000000pt" height="225.000000pt" viewBox="0 0 225.000000 225.000000"
 preserveAspectRatio="xMidYMid meet">
<metadata>
Created by potrace 1.15, written by Peter Selinger 2001-2017
</metadata>
<g transform="translate(0.000000,225.000000) scale(0.100000,-0.100000)"
fill="#000000" stroke="none">
<path d="M409 2218 c-77 -20 -206 -149 -291 -290 -95 -160 -115 -293 -64 -441
83 -244 308 -570 586 -847 330 -329 709 -573 949 -610 124 -20 274 33 430 151
98 73 156 137 189 208 22 47 23 57 13 92 -25 83 -217 249 -426 368 -215 123
-282 107 -371 -86 -24 -51 -46 -93 -50 -93 -19 0 -147 79 -233 142 -122 91
-238 207 -329 329 -64 87 -142 214 -142 233 0 4 35 23 78 42 134 61 182 108
182 178 0 131 -305 567 -434 621 -39 17 -37 17 -87 3z m126 -200 c106 -117
274 -390 261 -424 -3 -8 -48 -35 -101 -60 -95 -46 -140 -84 -151 -130 -29
-113 248 -489 501 -681 168 -126 297 -190 361 -178 44 8 87 59 134 161 21 46
45 87 53 90 49 18 454 -255 497 -336 21 -38 -113 -169 -250 -243 -91 -49 -170
-71 -233 -63 -168 23 -484 217 -771 475 -323 290 -622 713 -677 955 -10 45
-10 67 0 111 26 115 138 290 233 366 59 46 62 45 143 -43z"/>
</g>
</svg>
