<?xml version="1.0" standalone="no"?>
<!DOCTYPE svg PUBLIC "-//W3C//DTD SVG 20010904//EN"
 "http://www.w3.org/TR/2001/REC-SVG-20010904/DTD/svg10.dtd">
<svg version="1.0" xmlns="http://www.w3.org/2000/svg"
 width="1600.000000pt" height="1600.000000pt" viewBox="0 0 1600.000000 1600.000000"
 preserveAspectRatio="xMidYMid meet">
<metadata>
Created by potrace 1.15, written by Peter Selinger 2001-2017
</metadata>
<g transform="translate(0.000000,1600.000000) scale(0.100000,-0.100000)"
fill="#000000" stroke="none">
<path d="M12968 14000 c-107 -12 -254 -51 -388 -103 -199 -77 -988 -408 -5335
-2239 -1815 -765 -3817 -1608 -4450 -1875 -632 -266 -1179 -500 -1214 -519
-250 -137 -402 -283 -496 -477 -128 -264 -112 -550 47 -818 54 -91 186 -231
297 -314 181 -136 204 -145 1558 -601 l1241 -418 147 -480 c389 -1272 757
-2461 789 -2553 102 -292 228 -501 369 -614 179 -143 469 -188 707 -110 180
59 174 54 965 774 418 381 734 662 740 658 2275 -1745 2411 -1848 2485 -1878
293 -120 621 -137 918 -47 103 31 248 104 328 166 144 111 295 301 373 469 37
81 67 230 985 4934 520 2668 951 4891 957 4940 16 126 5 308 -25 426 -40 157
-126 310 -240 424 -78 78 -134 116 -250 171 -153 72 -336 103 -508 84z m8
-1078 c-5 -42 -1836 -9424 -1852 -9492 -3 -13 -25 -43 -48 -67 -37 -36 -50
-43 -82 -43 -111 1 -66 -31 -1631 1170 -806 619 -1472 1126 -1479 1128 -7 2
-410 -359 -896 -801 -486 -443 -884 -804 -886 -803 -4 4 367 2367 374 2378 3
5 1064 995 2357 2200 1294 1205 2398 2236 2455 2292 57 55 115 120 128 143 23
37 25 49 18 100 -5 44 -13 64 -36 87 -27 27 -33 28 -91 24 -34 -3 -89 -16
-122 -30 -33 -13 -1427 -870 -3097 -1905 l-3038 -1882 -1460 492 c-803 270
-1456 495 -1452 498 4 4 1681 713 3727 1574 2046 862 4094 1725 4550 1917 457
192 1199 504 1650 693 451 189 836 350 855 358 59 26 63 23 56 -31z"/>
</g>
</svg>
