<?xml version="1.0" standalone="no"?>
<!DOCTYPE svg PUBLIC "-//W3C//DTD SVG 20010904//EN"
 "http://www.w3.org/TR/2001/REC-SVG-20010904/DTD/svg10.dtd">
<svg version="1.0" xmlns="http://www.w3.org/2000/svg"
 width="980.000000pt" height="980.000000pt" viewBox="0 0 980.000000 980.000000"
 preserveAspectRatio="xMidYMid meet">
<metadata>
Created by potrace 1.15, written by Peter Selinger 2001-2017
</metadata>
<g transform="translate(0.000000,980.000000) scale(0.100000,-0.100000)"
fill="#000000" stroke="none">
<path d="M4560 9789 c-1035 -75 -1992 -461 -2800 -1127 -148 -122 -500 -474
-622 -622 -534 -647 -881 -1374 -1042 -2180 -259 -1293 18 -2648 761 -3727
277 -403 628 -778 1018 -1087 930 -737 2150 -1115 3337 -1036 1418 95 2699
777 3569 1900 456 589 776 1292 923 2030 300 1503 -115 3044 -1130 4200 -118
135 -390 401 -519 509 -771 643 -1656 1018 -2655 1126 -174 19 -664 27 -840
14z m575 -609 c622 -38 1181 -190 1720 -469 317 -164 659 -401 895 -620 l65
-60 -32 -1 c-18 0 -55 5 -83 11 -58 12 -111 5 -350 -48 -98 -21 -166 -42 -185
-55 -61 -44 -186 -162 -207 -196 -21 -34 -21 -35 -3 -48 18 -13 18 -15 -5 -39
-25 -27 -92 -55 -191 -80 -35 -9 -76 -25 -91 -36 -15 -10 -36 -19 -46 -19 -11
0 -25 -6 -31 -14 -15 -18 -2 -51 42 -102 34 -39 40 -41 132 -58 86 -15 98 -15
117 -1 36 24 46 18 62 -38 9 -30 25 -62 36 -72 24 -21 28 -83 6 -91 -29 -11
-53 14 -61 63 -4 26 -9 51 -12 55 -2 5 -22 -1 -43 -12 -22 -11 -46 -20 -55
-20 -22 0 -21 -117 1 -148 23 -34 12 -49 -47 -61 -33 -7 -68 -24 -95 -46 -25
-21 -49 -33 -58 -29 -11 4 -17 -4 -24 -28 -8 -29 -12 -33 -40 -32 -31 2 -32 0
-32 -36 0 -21 6 -41 13 -44 8 -3 6 -9 -8 -20 -11 -8 -28 -23 -38 -32 -16 -17
-19 -17 -47 4 -37 28 -37 28 -32 -8 4 -28 2 -30 -26 -30 -16 0 -48 7 -71 15
-24 8 -41 10 -41 4 0 -5 7 -12 15 -16 22 -8 124 -140 131 -170 4 -15 0 -39 -9
-59 -15 -31 -15 -34 0 -42 22 -13 10 -40 -22 -52 -35 -13 -88 -2 -80 18 13 34
-37 56 -60 26 -15 -21 -158 -33 -169 -15 -15 24 -24 8 -35 -67 -17 -114 -16
-214 3 -250 17 -33 68 -80 102 -92 12 -5 66 -5 120 0 75 7 101 14 109 26 6 9
27 37 48 61 20 24 37 51 37 58 0 8 23 73 52 145 l52 130 50 -7 c84 -11 108 -8
169 21 33 15 65 25 73 22 8 -3 22 -20 32 -38 26 -49 71 -88 137 -119 106 -50
134 -88 135 -189 l0 -35 27 28 c23 22 27 35 25 72 l-2 45 42 -6 42 -7 -25 26
c-13 14 -36 31 -51 36 -17 7 -28 18 -28 30 0 12 -9 21 -25 25 -15 4 -41 28
-61 56 -21 29 -44 50 -54 50 -23 0 -62 62 -54 84 12 31 49 16 125 -52 41 -37
93 -76 115 -85 89 -40 89 -40 92 -106 2 -45 7 -61 17 -61 8 0 15 -6 15 -13 0
-8 10 -26 23 -40 12 -15 30 -49 40 -77 12 -33 27 -54 44 -64 26 -13 28 -12 56
30 28 43 28 43 13 89 -18 52 -21 111 -6 120 17 11 102 -7 120 -25 10 -10 22
-46 28 -80 13 -69 51 -136 89 -153 17 -7 41 -7 82 0 47 9 67 8 106 -4 43 -15
51 -15 94 0 61 22 91 22 91 0 0 -38 -46 -201 -73 -261 -8 -18 -7 -25 8 -36 17
-12 17 -14 -3 -34 -16 -16 -34 -22 -67 -22 -25 0 -45 -4 -45 -9 0 -12 82 -122
110 -146 12 -11 31 -40 42 -65 11 -25 31 -61 46 -80 15 -19 35 -57 44 -84 10
-27 24 -56 33 -66 8 -9 15 -19 15 -23 0 -3 31 -80 70 -170 39 -90 70 -173 70
-184 0 -24 28 -83 40 -83 4 0 19 -24 33 -54 37 -77 99 -118 133 -87 5 5 38 19
74 32 36 12 78 33 93 46 16 12 59 32 97 44 37 11 76 29 86 40 10 11 54 42 99
70 95 58 108 68 124 94 10 16 11 -22 7 -195 -10 -398 -80 -787 -217 -1194 -58
-170 -171 -444 -200 -480 -10 -13 -19 -34 -19 -45 0 -14 -9 -25 -26 -31 -22
-9 -25 -15 -21 -38 3 -14 -2 -40 -10 -55 -11 -23 -19 -28 -36 -23 -66 19 -74
19 -80 -5 -7 -27 -1 -39 19 -39 18 0 18 -14 -1 -30 -13 -10 -19 -10 -33 4 -10
9 -21 16 -24 16 -7 0 -15 -44 -28 -155 -10 -90 -10 -90 -86 -202 -257 -378
-674 -797 -1072 -1076 -938 -658 -2137 -911 -3257 -686 -118 24 -308 69 -314
75 -3 3 7 17 22 32 74 74 109 122 102 139 -6 16 -8 16 -25 -5 -25 -30 -30 -28
-30 16 0 75 27 136 91 207 65 72 63 67 47 160 -3 17 2 20 33 17 35 -2 37 -1
54 45 22 59 57 90 112 99 23 3 63 17 89 30 26 13 53 24 61 24 9 0 13 17 13 65
0 69 -3 64 79 118 49 31 69 64 81 127 8 43 18 62 44 87 19 18 48 35 63 38 40
9 57 19 69 44 6 12 19 27 29 34 21 16 34 79 35 168 0 60 2 67 33 96 17 17 52
39 77 49 25 10 57 27 72 39 14 13 56 39 91 59 56 31 70 44 99 98 63 116 98
263 98 412 0 75 16 94 100 121 80 26 162 111 186 190 45 156 -35 319 -184 375
-81 31 -153 24 -260 -23 -112 -50 -118 -49 -114 11 3 36 -1 54 -16 72 l-20 25
-20 -25 c-21 -25 -37 -22 -44 10 -2 8 -25 29 -52 47 -48 32 -50 32 -63 13 -15
-22 -39 -25 -63 -10 -12 7 -15 31 -15 103 -1 80 -4 99 -24 133 -13 21 -27 52
-30 69 -5 20 -23 42 -56 68 -44 33 -55 37 -88 31 -46 -7 -157 30 -164 55 -2 9
-20 27 -39 40 -19 14 -39 33 -45 43 -5 10 -39 40 -75 67 -60 46 -67 49 -96 39
-36 -13 -160 -3 -188 14 -10 7 -31 34 -45 60 -15 26 -31 48 -36 48 -5 0 -28
-9 -51 -21 -38 -20 -61 -21 -99 -5 -10 5 -31 -5 -59 -29 -28 -23 -49 -34 -61
-30 -30 10 -59 -24 -59 -70 0 -50 -15 -72 -57 -84 -31 -9 -32 -9 -35 26 -2 25
-11 42 -30 56 l-27 21 -25 -27 c-22 -24 -33 -27 -86 -27 l-60 0 0 32 c0 20 -9
42 -24 57 -13 15 -31 56 -41 96 -10 39 -22 74 -27 80 -4 5 -8 36 -8 70 0 56
-11 85 -32 85 -4 0 -5 -7 -2 -15 5 -13 -8 -15 -85 -15 -90 0 -91 0 -91 25 0
13 -5 35 -11 49 -19 41 38 199 88 242 15 13 22 26 17 37 -7 19 -24 23 -24 6 0
-5 -17 -17 -37 -26 -21 -8 -50 -24 -65 -35 -16 -11 -36 -17 -46 -14 -12 4 -26
-2 -39 -16 -31 -36 -35 -46 -21 -67 11 -17 9 -24 -12 -46 -31 -33 -73 -31 -78
3 -2 12 -9 22 -16 22 -7 0 -28 16 -47 36 -18 20 -47 45 -63 54 -46 29 -88 135
-94 241 -5 98 10 205 38 260 22 43 68 81 119 98 50 16 71 14 113 -15 32 -22
45 -26 84 -21 57 6 73 20 56 47 -6 11 -12 25 -12 31 0 16 107 1 156 -22 30
-14 52 -18 87 -13 44 6 47 5 66 -27 12 -19 28 -59 37 -89 31 -109 71 -155 103
-117 9 12 7 41 -10 133 -11 65 -25 127 -31 138 -21 39 -2 86 64 155 35 36 74
71 88 77 24 10 120 158 120 184 0 26 53 137 78 163 15 16 51 45 80 64 41 27
59 47 87 101 44 84 83 116 168 138 72 19 71 19 81 -13 6 -18 3 -22 -20 -25
-15 -2 -29 -9 -32 -15 -12 -37 122 17 143 57 14 26 13 29 -10 44 -35 23 -87
103 -83 128 2 14 13 25 28 29 19 5 21 8 10 13 -8 3 -37 -5 -64 -19 -27 -14
-56 -25 -63 -25 -8 0 -43 -20 -80 -45 -36 -25 -76 -45 -89 -45 -24 0 -24 1
-10 35 21 49 37 71 102 137 74 75 98 82 249 74 142 -8 189 3 207 52 11 28 11
28 69 18 65 -11 89 0 89 39 0 13 5 25 11 27 19 6 -6 43 -46 68 -19 12 -35 28
-35 36 0 19 -10 18 -36 -7 l-23 -22 -7 27 c-3 14 -10 26 -15 26 -4 0 -14 11
-21 24 -7 13 -40 53 -73 88 -33 34 -75 92 -95 127 -19 36 -39 66 -45 68 -5 1
-17 -15 -26 -36 -21 -49 -84 -86 -130 -76 -29 7 -40 24 -16 26 10 0 10 2 0 6
-7 2 -13 9 -13 15 0 5 -32 42 -70 80 -53 53 -75 69 -90 65 -14 -4 -25 2 -36
18 -21 32 -43 39 -66 19 -20 -19 -69 -21 -112 -4 -15 5 -50 10 -77 10 -50 0
-51 0 -45 -27 18 -91 18 -104 2 -128 -19 -29 -14 -45 15 -45 12 0 25 -13 36
-35 14 -30 15 -42 4 -87 -8 -36 -8 -54 -1 -56 35 -12 -21 -66 -63 -60 -48 6
-72 -38 -42 -78 8 -10 15 -33 15 -51 0 -20 7 -36 18 -43 16 -9 15 -12 -7 -30
-18 -15 -36 -20 -64 -18 -35 3 -41 6 -42 28 -4 52 -29 126 -57 167 -34 50 -46
59 -61 44 -26 -26 -117 -4 -117 29 0 17 -70 48 -136 59 -153 27 -159 29 -177
66 -9 19 -41 54 -72 77 l-55 43 0 83 c0 79 2 85 29 113 17 16 40 29 54 29 33
0 107 27 129 47 11 10 27 14 46 10 34 -7 45 -1 65 40 9 17 29 41 43 52 25 20
74 28 87 15 11 -12 -23 -100 -48 -121 -14 -12 -25 -25 -25 -28 0 -9 63 -5 121
9 30 7 80 12 110 9 l54 -4 -80 43 c-108 58 -111 84 -14 134 46 23 48 25 54 79
4 30 4 66 1 80 -6 22 -11 25 -56 25 -36 0 -52 5 -59 18 -7 11 -10 12 -11 3 0
-10 -9 -12 -36 -6 -33 6 -36 4 -32 -13 11 -41 -10 -126 -37 -149 -39 -34 -52
-29 -69 30 -8 29 -27 64 -41 77 l-25 23 0 -22 c0 -12 -7 -24 -16 -28 -19 -7
-102 72 -142 134 -35 55 -65 72 -87 49 -9 -9 -25 -16 -35 -16 -26 0 -60 -38
-60 -68 0 -51 -14 -60 -83 -55 -63 5 -99 -9 -58 -22 11 -3 27 -19 35 -36 14
-28 13 -30 -11 -46 -39 -26 -110 -33 -189 -18 -114 22 -149 33 -172 58 l-22
23 25 24 c24 23 25 23 83 6 83 -23 92 -22 92 15 0 29 2 30 31 24 24 -6 30 -4
27 6 -3 10 -22 14 -56 14 -29 0 -52 3 -52 7 0 3 -2 13 -5 20 -10 25 268 245
491 391 780 508 1678 751 2579 697z m-4096 -2690 c2 -166 23 -280 64 -334 18
-23 43 -66 56 -96 13 -30 40 -77 61 -106 33 -43 45 -52 80 -58 56 -9 95 -48
104 -104 6 -42 45 -131 71 -162 6 -8 18 -37 25 -63 7 -26 30 -77 51 -112 22
-35 39 -68 39 -73 0 -20 62 -93 100 -118 40 -27 70 -27 70 1 0 36 -130 261
-221 382 -17 22 -28 46 -25 52 25 39 93 -33 168 -176 13 -25 33 -47 50 -54 15
-6 44 -30 63 -53 20 -22 41 -45 46 -51 56 -52 70 -74 88 -128 11 -34 25 -92
30 -130 16 -112 40 -146 138 -192 18 -8 38 -15 45 -15 6 0 30 -9 53 -20 23
-11 64 -26 91 -34 67 -19 173 -45 207 -51 15 -3 44 -20 65 -39 37 -32 95 -63
161 -85 88 -29 171 -100 171 -146 0 -14 9 -29 20 -35 30 -16 78 -87 90 -132 6
-21 21 -45 35 -54 20 -13 168 -58 170 -51 8 24 31 57 42 62 22 8 33 -3 54 -49
14 -32 19 -65 19 -148 0 -88 3 -109 16 -116 13 -7 14 -13 5 -31 -12 -21 -51
-30 -51 -11 0 43 -84 -72 -106 -147 -18 -60 -18 -117 1 -133 21 -17 19 -36
-10 -98 -31 -66 -31 -93 -4 -118 24 -21 126 -170 153 -223 10 -18 20 -45 22
-60 3 -14 11 -46 18 -71 7 -25 21 -70 29 -100 30 -101 104 -190 159 -190 9 0
38 -25 65 -56 l48 -57 0 -146 c0 -194 -15 -381 -32 -407 -9 -14 -17 -79 -23
-195 -9 -176 -18 -228 -43 -258 -7 -9 -23 -42 -35 -74 -18 -49 -21 -71 -16
-145 3 -50 1 -104 -5 -127 -5 -22 -16 -62 -23 -90 -7 -27 -19 -59 -25 -71 -15
-26 -33 -166 -33 -252 0 -75 14 -75 -160 -2 -525 219 -966 510 -1369 904
-1010 989 -1464 2389 -1225 3781 59 341 179 734 315 1030 l23 50 12 -50 c7
-27 13 -102 13 -165z m6920 127 c6 -8 14 -28 17 -45 4 -18 12 -32 20 -32 7 0
16 -9 19 -20 8 -25 25 -25 67 0 28 16 40 17 77 9 85 -19 209 -107 230 -164 8
-22 19 -43 25 -47 13 -9 -9 -35 -45 -54 -16 -8 -48 -14 -72 -14 -35 0 -51 7
-84 35 -40 34 -41 34 -47 12 l-6 -22 -23 27 c-22 26 -22 26 -75 13 -30 -8
-105 -17 -168 -21 -111 -7 -114 -6 -114 14 0 11 -4 24 -10 27 -5 3 -10 26 -10
50 0 34 12 68 52 145 l52 100 42 0 c23 0 47 -6 53 -13z m881 -34 c13 -29 17
-49 10 -51 -15 -5 -12 -55 6 -80 14 -20 23 -22 118 -22 90 0 107 -3 136 -22
54 -37 74 -72 74 -128 0 -82 -68 -150 -150 -150 -40 0 -43 -2 -49 -32 -6 -26
-3 -35 14 -49 19 -16 20 -19 5 -33 -9 -9 -32 -16 -56 -16 -33 0 -46 6 -72 35
-18 19 -38 35 -44 35 -6 0 -21 13 -33 29 -18 25 -29 29 -80 33 -51 4 -64 9
-94 38 -19 19 -40 50 -45 69 -19 70 27 159 95 181 32 10 33 13 19 27 -10 10
-13 25 -9 42 14 61 28 81 70 100 23 10 46 24 49 30 11 17 14 14 36 -36z m70
-1133 c4 0 10 6 13 13 8 21 71 47 114 47 47 0 96 -29 124 -72 29 -47 23 -137
-12 -174 -72 -77 -189 -71 -241 15 -12 20 -25 37 -28 38 -3 2 -3 47 -1 100 3
84 5 93 14 66 5 -18 13 -33 17 -33z"/>
<path d="M5290 7942 c-103 -51 -108 -201 -8 -262 30 -18 51 -20 232 -20 186 0
201 1 234 22 36 22 71 85 72 127 0 44 -38 106 -79 129 -36 20 -52 22 -227 22
-160 0 -194 -3 -224 -18z"/>
<path d="M6280 7320 c-7 -13 -21 -20 -41 -20 -39 0 -46 -20 -28 -88 13 -49 18
-57 49 -67 37 -12 60 -44 60 -82 0 -13 5 -23 10 -23 6 0 10 -4 10 -10 0 -5
-20 -10 -44 -10 -41 0 -44 -2 -50 -31 -11 -59 -10 -61 34 -54 36 6 40 5 46
-19 5 -22 12 -26 43 -26 58 0 108 18 146 54 29 28 33 35 21 45 -11 9 -15 7
-19 -10 -10 -38 -29 -15 -31 38 -1 52 -25 93 -53 93 -7 0 -13 7 -13 15 0 8
-16 33 -37 55 l-36 41 16 34 c19 41 18 41 -25 15 -18 -11 -36 -20 -40 -20 -14
0 -8 47 7 60 19 16 19 30 0 30 -8 0 -19 -9 -25 -20z"/>
<path d="M6070 7130 c0 -11 5 -20 10 -20 6 0 10 -4 10 -10 0 -5 -5 -10 -10
-10 -6 0 -27 -7 -47 -15 -26 -11 -33 -19 -26 -26 8 -8 7 -20 -2 -42 -15 -36
-4 -67 23 -67 9 0 36 9 58 19 33 15 47 30 67 72 14 30 29 67 33 83 l7 29 -46
-7 c-28 -4 -48 -3 -52 4 -10 17 -25 11 -25 -10z"/>
<path d="M6580 6039 c-8 -5 -41 -18 -73 -30 -31 -11 -70 -31 -85 -43 -40 -34
-131 -62 -153 -47 -29 17 -89 -16 -151 -86 -18 -20 -35 -29 -46 -26 -10 2 -23
-2 -30 -9 -17 -21 -63 -150 -66 -184 -2 -42 -114 -178 -153 -186 -20 -4 -105
-154 -134 -237 -11 -30 -19 -80 -19 -112 0 -32 -8 -77 -17 -100 -15 -40 -15
-47 1 -126 16 -75 16 -85 2 -99 -22 -21 -20 -62 4 -107 11 -20 20 -43 20 -50
0 -24 87 -193 118 -228 16 -19 33 -45 37 -58 15 -48 97 -122 182 -163 91 -44
190 -61 218 -38 12 10 66 14 210 14 182 1 195 0 222 -20 22 -16 47 -23 105
-25 105 -6 112 -13 103 -109 -4 -41 -16 -102 -27 -135 -18 -53 -19 -66 -8
-113 6 -29 24 -68 38 -85 60 -71 101 -144 113 -202 21 -98 15 -225 -16 -355
-15 -63 -27 -146 -28 -185 -1 -71 2 -82 83 -325 28 -83 42 -142 60 -247 8 -49
53 -161 140 -348 20 -44 43 -114 50 -155 7 -41 18 -81 24 -89 13 -17 149 -8
212 13 22 8 82 23 134 33 l93 17 44 61 c25 33 58 87 74 120 19 42 53 85 107
138 74 72 80 81 105 159 23 73 57 276 57 348 1 35 60 112 112 146 39 25 48 38
71 104 15 41 30 103 33 137 8 78 -12 218 -39 262 -18 31 -19 43 -13 160 4 69
9 141 10 159 4 45 70 128 269 337 70 73 127 138 127 143 0 5 20 30 43 56 35
37 43 53 39 73 -3 17 1 30 10 37 9 6 19 27 23 45 4 19 20 65 36 102 37 88 38
103 2 94 -15 -3 -59 -10 -98 -15 -38 -5 -93 -12 -122 -16 -58 -7 -93 0 -76 17
8 8 -1 21 -28 46 -41 37 -100 133 -120 194 -6 19 -20 52 -30 75 -11 22 -19 46
-19 53 0 7 -13 32 -30 56 -16 24 -30 54 -30 68 0 14 -16 41 -39 66 -21 23 -56
76 -77 119 -22 42 -49 92 -62 111 -12 19 -28 54 -34 78 -6 24 -19 48 -28 53
-22 12 -70 106 -70 137 0 33 -111 140 -159 153 -33 9 -200 29 -241 30 -9 0
-21 13 -27 30 -13 34 -63 64 -71 42 -2 -7 -13 -21 -24 -32 -60 -56 -302 -53
-324 5 -5 11 -21 15 -59 15 l-53 0 -12 47 c-14 58 -84 194 -111 219 -15 14
-22 15 -28 6 -6 -9 -30 -9 -112 3 -118 17 -167 18 -189 4z"/>
<path d="M3225 5180 c-3 -5 -23 -10 -43 -10 l-37 0 25 -20 c14 -11 43 -25 65
-32 22 -7 52 -24 67 -39 14 -14 47 -32 72 -39 45 -12 96 -8 96 9 0 19 -44 62
-83 81 -23 11 -58 29 -77 40 -37 22 -75 26 -85 10z"/>
</g>
</svg>
